<svg width="500" height="582" viewBox="0 0 500 582" fill="none" xmlns="http://www.w3.org/2000/svg">
<g clip-path="url(#clip0_71_1855)">
<path d="M549.002 402.582C549.002 607.746 538.147 703.638 208.04 703.638C-44.6007 703.638 -48.7089 624.765 -48.7089 419.601C-48.7089 214.439 -48.7086 64.554 -48.7089 31.1033C281.398 31.1033 549.002 197.42 549.002 402.582Z" fill="#39D38B"/>
<path d="M211.961 87.0587C213.722 88.2324 216.069 89.5816 218.71 90.5328C220.471 91.1666 223.615 91.5997 226.806 91.6426C230.343 91.6901 232.393 91.4988 235.796 90.5328C238.569 89.7459 242.589 87.6473 242.589 87.6473C242.589 87.6473 246.271 85.3128 247.983 84.051C250.621 82.1074 252.684 80.0364 254.775 77.4806C257.023 74.7341 257.625 70.9824 258.572 67.669C259.305 65.1021 260.17 59.2782 260.17 59.2782C260.17 59.2782 261.144 47.4851 259.46 42.0084C257.769 36.5162 254.193 32.0144 248.183 29.0006C243.308 26.556 234.376 26.914 234.376 26.914C234.376 26.914 228.052 26.4871 224.209 27.5133C220.964 28.38 216.396 31.1093 216.396 31.1093L213.421 32.8186L209.248 35.3047C209.248 35.3047 204.132 38.4619 201.479 39.7887C199.295 40.8808 193.443 43.2959 193.443 43.2959L190.158 44.4058L186.051 45.4935L182.966 46.0928L178.082 46.8919C178.082 46.8919 168.981 47.6587 163.166 47.2915C155.045 46.7789 142.699 43.3847 142.699 43.3847C142.699 43.3847 137.215 41.3897 134.886 38.701C131.706 35.032 131.758 31.5848 131.511 26.7364C131.252 21.6457 131.866 17.7356 133.908 13.9061C134.988 11.8828 136.542 8.36537 139.724 6.55862C142.023 5.25377 143.757 4.20091 146.295 4.93816C148.522 5.58527 149.92 6.74571 150.69 8.93379C151.525 11.3039 150.741 13.1111 149.403 15.238C147.91 17.6111 145.247 8.93379 145.247 8.93379" stroke="black" stroke-width="10" stroke-linecap="round"/>
<path d="M74.017 161.759C74.017 161.759 128.759 210.874 177.525 225.372C228.738 240.597 316.096 230.352 316.096 230.352" stroke="black" stroke-width="10" stroke-linecap="round" stroke-linejoin="round"/>
<path d="M129.294 108.356L188.566 128.895" stroke="black" stroke-width="10" stroke-linecap="round"/>
<path d="M183.448 136.104C177.339 153.602 160.244 163.547 145.265 158.318C130.286 153.088 123.096 134.664 129.205 117.166C135.314 99.6679 142.211 114.798 157.19 120.028C172.168 125.257 189.557 118.606 183.448 136.104Z" fill="black"/>
<path d="M141.031 134.177C143.948 134.177 146.313 131.813 146.313 128.896C146.313 125.979 143.948 123.614 141.031 123.614C138.114 123.614 135.749 125.979 135.749 128.896C135.749 131.813 138.114 134.177 141.031 134.177Z" fill="white"/>
<path d="M212.041 138.659L271.313 159.199" stroke="black" stroke-width="10" stroke-linecap="round"/>
<path d="M266.194 166.407C260.085 183.906 242.99 193.851 228.012 188.621C213.033 183.391 205.843 164.967 211.952 147.469C218.06 129.972 224.958 145.102 239.936 150.332C254.915 155.561 272.303 148.91 266.194 166.407Z" fill="black"/>
<path d="M223.778 164.481C226.695 164.481 229.059 162.116 229.059 159.199C229.059 156.282 226.695 153.917 223.778 153.917C220.861 153.917 218.496 156.282 218.496 159.199C218.496 162.116 220.861 164.481 223.778 164.481Z" fill="white"/>
</g>
<defs>
<clipPath id="clip0_71_1855">
<rect width="500" height="581.573" fill="white"/>
</clipPath>
</defs>
</svg>
