<svg width="500" height="590" viewBox="0 0 500 590" fill="none" xmlns="http://www.w3.org/2000/svg">
<path d="M500 337.842C500 509.465 490.919 589.683 214.777 589.683C3.43656 589.683 0 523.702 0 352.079C0 180.456 0.000209289 55.0736 1.45281e-05 27.0913C276.142 27.0913 500 166.219 500 337.842Z" fill="#39D38B"/>
<path d="M148.904 91.7146L198.486 108.897" stroke="black" stroke-width="10" stroke-linecap="round"/>
<path d="M194.205 114.927C189.094 129.564 174.794 137.884 162.264 133.509C149.734 129.134 143.719 113.722 148.829 99.0846C153.94 84.4473 159.709 97.1039 172.239 101.479C184.769 105.853 199.315 100.289 194.205 114.927Z" fill="black"/>
<ellipse cx="158.722" cy="108.897" rx="4.41826" ry="4.41826" fill="white"/>
<path d="M218.123 117.064L267.706 134.247" stroke="black" stroke-width="10" stroke-linecap="round"/>
<path d="M263.424 140.277C258.314 154.914 244.013 163.234 231.483 158.859C218.953 154.484 212.938 139.072 218.049 124.435C223.159 109.797 228.929 122.454 241.459 126.828C253.989 131.203 268.535 125.639 263.424 140.277Z" fill="black"/>
<ellipse cx="227.941" cy="134.247" rx="4.41826" ry="4.41826" fill="white"/>
<path d="M102.663 136.388C102.663 136.388 148.456 177.474 189.251 189.602C232.091 202.338 305.168 193.767 305.168 193.767" stroke="black" stroke-width="10" stroke-linecap="round" stroke-linejoin="round"/>
<path d="M218.057 73.8996C219.53 74.8814 221.493 76.0099 223.702 76.8055C225.175 77.336 227.806 77.6982 230.475 77.734C233.434 77.7737 235.149 77.6137 237.996 76.8055C240.315 76.1471 243.678 74.3916 243.678 74.3916C243.678 74.3916 246.758 72.4388 248.19 71.3834C250.397 69.7574 252.123 68.025 253.872 65.887C255.752 63.5894 256.255 60.451 257.047 57.6795C257.661 55.5323 258.384 50.6604 258.384 50.6604C258.384 50.6604 259.2 40.7951 257.79 36.2138C256.376 31.6194 253.384 27.8535 248.357 25.3323C244.279 23.2874 236.807 23.5869 236.807 23.5869C236.807 23.5869 231.517 23.2298 228.303 24.0882C225.588 24.8132 221.766 27.0964 221.766 27.0964L219.278 28.5262L215.787 30.6059C215.787 30.6059 211.508 33.247 209.288 34.3569C207.461 35.2705 202.566 37.2908 202.566 37.2908L199.818 38.2192L196.382 39.1291L193.801 39.6304L189.716 40.2989C189.716 40.2989 182.103 40.9403 177.238 40.6332C170.445 40.2044 160.117 37.365 160.117 37.365C160.117 37.365 155.53 35.6962 153.581 33.447C150.922 30.3778 150.965 27.4941 150.759 23.4383C150.542 19.1798 151.055 15.9089 152.764 12.7054C153.667 11.0129 154.967 8.07051 157.629 6.5591C159.552 5.46757 161.002 4.58683 163.125 5.20356C164.989 5.74488 166.158 6.71562 166.802 8.54598C167.5 10.5287 166.844 12.0404 165.725 13.8196C164.476 15.8048 162.248 8.54598 162.248 8.54598" stroke="black" stroke-width="10" stroke-linecap="round"/>
</svg>
