<svg width="500" height="729" viewBox="0 0 500 729" fill="none" xmlns="http://www.w3.org/2000/svg">
<path d="M500 476.281C500 647.904 490.919 728.122 214.777 728.122C3.43656 728.122 0 662.141 0 490.518C0 318.895 0.000209289 193.513 1.45281e-05 165.53C276.142 165.53 500 304.658 500 476.281Z" fill="#8D64FD"/>
<path d="M133.249 226.021C133.259 233.565 134.219 241.638 137.656 248.212C138.42 249.672 139.031 251.12 140.051 252.771C141.131 254.342 141.919 255.514 143.23 256.978C144.542 258.442 145.861 259.551 146.976 260.519C148.068 261.467 150.048 262.494 151.406 263.017C153.193 263.706 155.29 264.582 157.288 265.363C158.959 266.042 161.055 266.443 162.918 266.7C164.461 266.912 167.342 266.907 168.781 266.951C170.485 266.902 172.685 266.683 174.192 266.343C178.4 265.396 182.268 263.948 186.277 261.684C188.287 260.418 189.857 258.949 191.165 257.711C192.387 256.555 194.042 255.129 194.618 254.526" stroke="black" stroke-width="10" stroke-linecap="round"/>
<path d="M219.892 265.318C220.909 272.775 222.934 280.598 227.209 286.523C228.159 287.839 228.956 289.169 230.184 290.63C231.462 292.004 232.397 293.031 233.889 294.259C235.382 295.488 236.834 296.364 238.065 297.134C239.272 297.889 241.366 298.574 242.778 298.864C244.638 299.246 246.828 299.762 248.908 300.201C250.65 300.593 252.776 300.639 254.653 300.581C256.206 300.533 259.055 300.047 260.484 299.85C262.162 299.516 264.308 298.931 265.753 298.344C269.787 296.704 273.419 294.626 277.082 291.717C278.9 290.129 280.256 288.414 281.385 286.971C282.439 285.624 283.885 283.937 284.374 283.244" stroke="black" stroke-width="10" stroke-linecap="round"/>
<path d="M209.57 217.567L211.5 215.383M211.5 215.383C211.5 215.383 215.482 211.399 217.566 208.517C225.436 197.627 225.561 175.675 225.561 175.675C225.561 175.675 196.257 156.121 186.412 137.661C176.14 118.399 174.395 104.387 177.866 83.0966C181.229 62.4648 187.064 50.1012 202.127 34.7388C213.891 22.74 222.887 17.4082 239.07 11.4649C255.107 5.57521 265.407 5 282.629 5C299.852 5 309.684 6.84937 326.189 11.4649C341.39 15.7159 350.472 18.1114 363.408 26.7222C379.36 37.341 387.216 46.1182 395.664 62.6673C404.053 79.1017 407.589 90.3435 405.313 108.439C403.151 125.639 398.309 135.891 386.291 149.039C368.63 168.36 349.533 170.904 322.881 175.675C301.201 179.555 266.363 175.675 266.363 175.675C266.363 175.675 254.192 200.564 239.07 208.517C229.353 213.627 211.5 215.383 211.5 215.383Z" stroke="black" stroke-width="10" stroke-linecap="round"/>
<path d="M83.4561 231.804C83.4561 231.804 107.068 272.358 129.111 291.942C148.581 309.238 161.22 318.472 185.812 327.042C212.906 336.484 230.268 333.897 258.959 333.915C291.246 333.936 341.188 325.324 341.188 325.324" stroke="black" stroke-width="10" stroke-linecap="round"/>
</svg>
